<svg width="32" height="32" viewBox="0 0 32 32" fill="none" xmlns="http://www.w3.org/2000/svg">
<g id="Frame">
<g id="Group 1">
<path id="Vector" d="M16.9607 2.09141C19.1483 2.09141 21.3359 2.097 23.5229 2.08694C23.9905 2.0847 24.3162 2.25081 24.5536 2.67365C25.7364 4.7828 26.9335 6.88355 28.1267 8.98655C29.1463 10.7836 30.1709 12.5779 31.1812 14.3799C31.2576 14.5159 31.3048 14.739 31.2455 14.8615C31.1988 14.9572 30.967 14.9941 30.8164 14.9969C30.0753 15.0092 29.3331 14.9834 28.5926 15.0075C28.0959 15.0237 27.763 14.8296 27.5185 14.3934C26.4632 12.5096 25.3963 10.6326 24.3327 8.75388C23.785 7.78628 23.2356 6.82035 22.6862 5.85387C22.4676 5.46851 22.133 5.31526 21.7029 5.31526C18.5363 5.31861 15.3691 5.30631 12.2025 5.32532C11.6301 5.32868 11.2527 5.13852 10.9873 4.61836C10.6588 3.97516 10.2742 3.3616 9.93087 2.72567C9.85946 2.59367 9.78529 2.36827 9.84517 2.28046C9.92263 2.16748 10.1336 2.10204 10.2885 2.09924C11.1758 2.08302 12.0641 2.09141 12.9519 2.09141C14.288 2.09141 15.624 2.09141 16.9607 2.09141Z" fill="#3772FF"/>
<path id="Vector_2" d="M27.5947 17.4948C27.7952 17.1447 28.1105 16.9763 28.5061 16.9741C29.284 16.9707 30.0625 16.9691 30.8409 16.973C31.2903 16.9752 31.42 17.204 31.1997 17.5949C30.7267 18.4344 30.246 19.27 29.7812 20.114L27.0091 24.9962C26.191 26.4381 25.367 27.8767 24.5577 29.3236C24.3363 29.7201 24.0408 29.9131 23.5848 29.9125C19.1354 29.9064 14.686 29.9103 10.2366 29.9109C9.81416 29.9109 9.68726 29.6922 9.89437 29.3264C10.2872 28.6328 10.68 27.9393 11.07 27.2441C11.2843 26.8621 11.5936 26.6814 12.0358 26.682C15.2217 26.6898 18.408 26.6809 21.5939 26.692C22.1454 26.6937 22.5223 26.4968 22.7899 25.9884C23.2695 25.0784 23.7721 24.1791 24.3138 23.3066L27.5947 17.4948Z" fill="#3772FF"/>
<path id="Vector_3" d="M2.12163 18.7704C1.69751 18.0316 1.28658 17.2844 0.856414 16.5494C0.635566 16.1719 0.647652 15.8195 0.860809 15.4454C1.90737 13.6108 2.94624 11.7718 3.99005 9.93506C5.18055 7.8399 6.37159 5.74529 7.56428 3.6518C7.75602 3.31454 8.01038 3.31566 8.20321 3.65292C8.61194 4.36883 9.01848 5.08587 9.42392 5.80402C9.6184 6.14911 9.61345 6.49644 9.41897 6.83985C8.49602 8.468 7.57143 10.0956 6.64848 11.7232C5.94473 12.9643 5.24318 14.2065 4.53833 15.4465C4.31583 15.8385 4.32956 16.2083 4.55865 16.6026L8.49657 23.5307C8.78884 24.0464 9.07287 24.5677 9.37558 25.0772C9.62389 25.4961 9.62005 25.8899 9.36898 26.3099C8.97014 26.9783 8.59821 27.6629 8.2098 28.3374C7.99939 28.7037 7.7703 28.7132 7.56428 28.3536C6.80834 27.0348 6.06065 25.7114 5.30965 24.3904L2.12163 18.7704Z" fill="#3772FF"/>
<path id="Vector_4" d="M6.63979 16.5068C6.44146 16.159 6.44366 15.8374 6.64638 15.4833C7.92478 13.2472 9.19274 11.0049 10.4634 8.76435C10.6821 8.37955 10.8579 8.37564 11.0809 8.75541L14.9419 15.5465C15.1249 15.8648 15.1051 16.1662 14.9321 16.4705C13.6564 18.7195 12.3813 20.969 11.0974 23.2129C11.0238 23.3421 10.8749 23.5077 10.7601 23.5088C10.642 23.5099 10.5733 23.3735 10.4634 23.176L6.63979 16.5068Z" fill="#3772FF"/>
<path id="Vector_5" d="M21.5215 24.3966C21.3551 24.6841 21.0826 24.8077 20.7568 24.8077C18.1934 24.8083 15.6301 24.8094 13.0661 24.8072C12.6772 24.8066 12.5651 24.6114 12.7563 24.2747C14.0407 22.0089 15.3301 19.746 16.6129 17.4791C16.8118 17.1279 17.093 16.9701 17.488 16.9707C19.9965 16.9752 22.5055 16.9724 25.0139 16.9741C25.1046 16.9741 25.1985 16.9774 25.2858 16.9998C25.5029 17.0552 25.5902 17.228 25.4803 17.4243C25.0326 18.2241 22.0264 23.5258 21.5215 24.3966Z" fill="#3772FF"/>
<path id="Vector_6" d="M12.7093 7.65125C12.5928 7.41187 12.6851 7.25079 12.9466 7.22897C12.9922 7.22506 13.0384 7.22674 13.084 7.22674C15.6287 7.22674 18.1728 7.23345 20.7175 7.2217C21.1334 7.21947 21.3993 7.37384 21.6042 7.7385C22.8398 9.93546 24.0901 12.1235 25.3262 14.3199C25.418 14.4832 25.5196 14.7147 25.4718 14.8685C25.396 15.1135 25.1246 14.9972 24.9351 14.9972C22.4091 15.0028 19.8825 15.0011 17.3565 15.0056C17.0301 15.0061 16.801 14.8663 16.6401 14.5822C16.1006 13.6302 12.8571 7.95495 12.7093 7.65125Z" fill="#3772FF"/>
</g>
</g>
</svg>
